HIERARCHY
ROOT Root
{
	OFFSET 0.00000 0.00000 0.00000
	CHANNELS 6 Xposition Yposition Zposition Zrotation Xrotation Yrotation
	JOINT Hips
	{
		OFFSET 0 0 0	
		CHANNELS 3 Zrotation Xrotation Yrotation
		JOINT Spine
		{
			OFFSET 0 4 0	
			CHANNELS 3 Zrotation Xrotation Yrotation
			JOINT Spine1
			{
				OFFSET 0 19.4 0	
				CHANNELS 3 Zrotation Xrotation Yrotation
				JOINT Spine2
				{
					OFFSET 0 16.6 0	
					CHANNELS 3 Zrotation Xrotation Yrotation
					JOINT LeftCollar
					{
						OFFSET 0 10 0	
						CHANNELS 3 Zrotation Xrotation Yrotation
						JOINT LeftArm
						{
							OFFSET 15.6 -2 3	
							CHANNELS 3 Zrotation Xrotation Yrotation
							JOINT LeftForeArm
							{
								OFFSET 3.5 -27 -1	
								CHANNELS 3 Zrotation Xrotation Yrotation
								JOINT LeftHand
								{
									OFFSET 1 -27 1	
									CHANNELS 3 Zrotation Xrotation Yrotation
									End Site
									{
										OFFSET 0 -15 0
									}
								}
							}
						}
					}
					JOINT RightCollar
					{
						OFFSET 0 10 0	
						CHANNELS 3 Zrotation Xrotation Yrotation
						JOINT RightArm
						{
							OFFSET -15.6 -2 3	
							CHANNELS 3 Zrotation Xrotation Yrotation
							JOINT RightForeArm
							{
								OFFSET -3.5 -27 -1	
								CHANNELS 3 Zrotation Xrotation Yrotation
								JOINT RightHand
								{
									OFFSET -1 -27 1	
									CHANNELS 3 Zrotation Xrotation Yrotation
									End Site
									{
										OFFSET 0 -15 0
									}
								}
							}
						}
					}
					JOINT Neck
					{
						OFFSET 0 10 0	
						CHANNELS 3 Zrotation Xrotation Yrotation
						JOINT Head
						{
							OFFSET 0 12.7 3	
							CHANNELS 3 Zrotation Xrotation Yrotation
							End Site
							{
								OFFSET 0 12.7 3
							}
						}
					}
				}
			}
		}
	}
	JOINT LeftHip
	{
		OFFSET 0 0 0	
		CHANNELS 3 Zrotation Xrotation Yrotation
		JOINT LeftUpLeg
		{
			OFFSET 8.8 -6 0	
			CHANNELS 3 Zrotation Xrotation Yrotation
			JOINT LeftLeg
			{
				OFFSET 0 -39 2	
				CHANNELS 3 Zrotation Xrotation Yrotation
				JOINT LeftFoot
				{
					OFFSET 0 -43 -2	
					CHANNELS 3 Zrotation Xrotation Yrotation
					JOINT LeftFootFront
					{
						OFFSET 0 -7 8.5	
						CHANNELS 3 Zrotation Xrotation Yrotation
						End Site
						{
							OFFSET 0 -0.5 9
						}
					}
				}
				JOINT LeftHeel
				{
					OFFSET 0 -43 -2	
					CHANNELS 3 Zrotation Xrotation Yrotation
					End Site
					{
						OFFSET 0 -7.5 -5
					}
				}
			}
		}
	}
	JOINT RightHip
	{
		OFFSET 0 0 0	
		CHANNELS 3 Zrotation Xrotation Yrotation
		JOINT RightUpLeg
		{
			OFFSET -8.8 -6 0	
			CHANNELS 3 Zrotation Xrotation Yrotation
			JOINT RightLeg
			{
				OFFSET 0 -39 2	
				CHANNELS 3 Zrotation Xrotation Yrotation
				JOINT RightFoot
				{
					OFFSET 0 -43 -2	
					CHANNELS 3 Zrotation Xrotation Yrotation
					JOINT RightFootFront
					{
						OFFSET 0 -7 8.5	
						CHANNELS 3 Zrotation Xrotation Yrotation
						End Site
						{
							OFFSET 0 -0.5 9
						}
					}
				}
				JOINT RightHeel
				{
					OFFSET 0 -43 -2	
					CHANNELS 3 Zrotation Xrotation Yrotation
					End Site
					{
						OFFSET 0 -7.5 -5
					}
				}
			}
		}
	}
}
MOTION
Frames: 23
Frame Time: 0.025
0 96.378 0 -0 0 -0 6.9766 -10.153 -4.4877 -4.9618 8.613 2.2283 -4.9618 8.613 2.2283 -4.1398 7.2485 1.8189 -0 0 -0 24.007 -4.0645 22.618 -73.38 -45.034 -32.62 -0 0 -0 -0 0 -0 -4.7168 15.23 -8.7772 57.803 -77.343 57.997 -0 0 -0 6.4192 -8.768 -4.3685 6.4192 -8.768 -4.3685 6.9766 -10.153 -4.4877 -14.003 0.57257 -10.416 7.8735 22.898 14.713 -0 0 -0 -0 0 -0 -0 0 -0 6.9766 -10.153 -4.4877 -5.5486 8.8004 -7.0617 11.4 31.128 -1.8166 -0 0 -0 -0 0 -0 -0 0 -0 
0 96.378 0 -0 0 -0 6.6802 -8.5301 -4.2992 -4.3782 7.803 2.2301 -4.3782 7.803 2.2301 -3.6532 6.5664 1.831 -0 0 -0 21.732 -2.1484 24.45 -76.306 -47.989 -33.706 -0 0 -0 -0 0 -0 -5.7342 15.894 -10.329 91.525 -83.691 92.336 -0 0 -0 5.703 -8.3791 -4.6913 5.703 -8.3791 -4.6913 6.6802 -8.5301 -4.2992 -14.014 -3.8433 -9.9685 8.5634 26.188 16.096 -0 0 -0 -0 0 -0 -0 0 -0 6.6802 -8.5301 -4.2992 -3.9701 7.8598 -9.1347 8.885 27.791 0.74539 -0 0 -0 -0 0 -0 -0 0 -0 
0 96.378 0 -0 0 -0 6.2013 -7.0612 -4.1773 -3.6225 7.1455 2.1942 -3.6225 7.1455 2.1942 -3.0217 6.0118 1.811 -0 0 -0 18.921 -1.1513 26.663 -78.963 -49.425 -35.26 -0 0 -0 -0 0 -0 -7.5454 15.413 -11.05 -179.29 -83.435 -176.83 -0 0 -0 4.7876 -7.9921 -4.8792 4.7876 -7.9921 -4.8792 6.2013 -7.0612 -4.1773 -14.571 -9.4275 -9.3225 9.8666 31.715 15.855 -0 0 -0 -0 0 -0 -0 0 -0 6.2013 -7.0612 -4.1773 -2.661 6.3183 -11.395 7.0893 25.212 1.1417 -0 0 -0 -0 0 -0 -0 0 -0 
0 96.378 0 -0 0 -0 5.4604 -5.9495 -3.9946 -2.5999 6.6839 1.9978 -2.5999 6.6839 1.9978 -2.1665 5.6207 1.6564 -0 0 -0 15.595 -0.46764 29.141 -81.75 -49.501 -37.722 -0 0 -0 -0 0 -0 -10.506 13.66 -11.258 -147.9 -75.653 -143.13 -0 0 -0 3.5862 -7.6225 -4.8137 3.5862 -7.6225 -4.8137 5.4604 -5.9495 -3.9946 -15.693 -15.392 -9.8489 11.313 38.937 15.307 -0 0 -0 -0 0 -0 -0 0 -0 5.4604 -5.9495 -3.9946 -1.6774 4.2707 -12.881 6.4362 23.676 -0.54698 -0 0 -0 -0 0 -0 -0 0 -0 
0 96.378 0 -0 0 -0 4.3629 -5.3997 -3.6154 -1.2889 6.416 1.5782 -1.2889 6.416 1.5782 -1.0699 5.3919 1.315 -0 0 -0 12.27 0.34878 31.201 -84.654 -48.848 -41.05 -0 0 -0 -0 0 -0 -14.765 10.672 -11.615 -137.8 -67.365 -130.7 -0 0 -0 2.1338 -7.2655 -4.4801 2.1338 -7.2655 -4.4801 4.3629 -5.3997 -3.6154 -16.929 -20.637 -12.087 12.033 47.091 15.838 -0 0 -0 -0 0 -0 -0 0 -0 4.3629 -5.3997 -3.6154 -1.0049 2.17 -13.103 7.1702 23.125 -3.5625 -0 0 -0 -0 0 -0 -0 0 -0 
0 96.378 0 -0 0 -0 2.8621 -5.4197 -3.1006 0.27595 6.2888 0.98906 0.27595 6.2888 0.98906 0.23897 5.2823 0.83227 -0 0 -0 9.6398 1.3676 32.273 -87.43 -47.793 -44.756 -0 0 -0 -0 0 -0 -20.376 6.5232 -12.763 -132.09 -60.325 -123.24 -0 0 -0 0.55516 -6.9382 -3.9676 0.55515 -6.9382 -3.9676 2.8621 -5.4197 -3.1006 -18.661 -24.311 -15.848 12.489 55.686 17.711 -0 0 -0 -0 0 -0 -0 0 -0 2.8621 -5.4197 -3.1006 -0.55179 0.54136 -12.783 8.9477 23.259 -6.2489 -0 0 -0 -0 0 -0 -0 0 -0 
0 96.378 0 -0 0 -0 1.0846 -5.5923 -2.6969 1.9975 6.2833 0.28552 1.9975 6.2833 0.28552 1.6788 5.2773 0.25446 -0 0 -0 8.1044 2.1844 32.489 -89.924 -46.336 -48.183 -0 0 -0 -0 0 -0 -27.3 0.76106 -14.994 -126.5 -55.602 -117.19 -0 0 -0 -1.0846 -6.8566 -3.2596 -1.0846 -6.8566 -3.2596 1.0846 -5.5923 -2.6969 -20.553 -27.064 -20.056 13.197 64.826 19.62 -0 0 -0 -0 0 -0 -0 0 -0 1.0846 -5.5923 -2.6969 -0.015234 -0.51569 -12.577 10.926 23.752 -7.6158 -0 0 -0 -0 0 -0 -0 0 -0 
0 96.378 0 -0 0 -0 -0.73459 -5.3248 -2.5779 3.7334 6.5916 -0.50863 3.7334 6.5916 -0.50863 3.1297 5.5393 -0.39793 -0 0 -0 7.7768 1.7793 32.499 -92.126 -44.648 -51.003 -0 0 -0 -0 0 -0 -35.438 -7.7053 -18.89 -118.75 -53.82 -111.01 -0 0 -0 -2.7372 -7.5244 -2.2803 -2.7372 -7.5244 -2.2803 -0.73459 -5.3248 -2.5779 -22.034 -30.075 -23.846 14.781 74.325 20.056 -0 0 -0 -0 0 -0 -0 0 -0 -0.73459 -5.3248 -2.5779 0.99122 -1.469 -12.622 12.36 24.483 -7.663 -0 0 -0 -0 0 -0 -0 0 -0 
0 96.378 0 -0 0 -0 -2.7993 -4.4473 -2.7202 5.4659 7.7224 -1.3028 5.4659 7.7224 -1.3028 4.5746 6.4957 -1.0434 -0 0 -0 8.8243 -1.3524 33.315 -94.038 -42.888 -53.275 -0 0 -0 -0 0 -0 -45.067 -19.402 -25.928 -107.24 -54.357 -103.42 -0 0 -0 -4.2162 -9.6506 -1.1468 -4.2162 -9.6506 -1.1468 -2.7993 -4.4473 -2.7202 -22.062 -33.104 -27.289 15.886 82.97 20.331 -0 0 -0 -0 0 -0 -0 0 -0 -2.7993 -4.4473 -2.7202 2.807 -2.6759 -12.94 13.198 25.479 -6.769 -0 0 -0 -0 0 -0 -0 0 -0 
0 96.378 0 -0 0 -0 -5.6852 -3.3778 -2.8657 7.241 9.5594 -1.8604 7.241 9.5594 -1.8604 6.0515 8.0469 -1.4784 -0 0 -0 11.632 -6.4693 34.88 -95.926 -41.486 -55.299 -0 0 -0 -0 0 -0 -56.72 -31.323 -36.489 -92.389 -54.797 -94.143 -0 0 -0 -5.2853 -12.791 -0.2697 -5.2853 -12.791 -0.2697 -5.6852 -3.3778 -2.8657 -19.78 -35.008 -30.198 -19.538 89.415 56.724 -0 0 -0 -0 0 -0 -0 0 -0 -5.6852 -3.3778 -2.8657 5.8441 -3.9925 -13.448 13.736 26.534 -5.9102 -0 0 -0 -0 0 -0 -0 0 -0 
0 96.378 0 -0 0 -0 -9.2016 -2.7036 -2.764 8.6388 10.625 -1.5652 8.6388 10.625 -1.5652 7.2223 8.9424 -1.2033 -0 0 -0 16.431 -9.5992 34.35 -98.101 -40.898 -57.378 -0 0 -0 -0 0 -0 -67.29 -37.591 -45.927 -78.285 -52.976 -85.83 -0 0 -0 -5.7033 -14.593 -0.51855 -5.7033 -14.593 -0.51855 -9.2016 -2.7036 -2.764 -15.901 -35.151 -32.034 -154.79 86.31 -167.48 -0 0 -0 -0 0 -0 -0 0 -0 -9.2016 -2.7036 -2.764 9.727 -4.9867 -13.751 14.207 27.137 -6.2354 -0 0 -0 -0 0 -0 -0 0 -0 
0 96.378 0 -0 0 -0 -12.38 -2.7387 -2.4883 9.2908 10.563 -0.50908 9.2908 10.563 -0.50908 7.7823 8.8804 -0.31031 -0 0 -0 22.134 -10.316 30.813 -100.78 -41.429 -59.766 -0 0 -0 -0 0 -0 -72.612 -38.308 -49.718 -68.314 -49.611 -80.537 -0 0 -0 -5.4338 -14.533 -1.8521 -5.4338 -14.533 -1.8521 -12.38 -2.7387 -2.4883 -12.035 -33.628 -31.966 -167.89 84.47 -154.35 -0 0 -0 -0 0 -0 -0 0 -0 -12.38 -2.7387 -2.4883 13.407 -5.1424 -13.908 14.299 26.833 -7.188 -0 0 -0 -0 0 -0 -0 0 -0 
0 96.378 0 -0 0 -0 -14.581 -3.2957 -2.2739 9.7796 10.343 -0.19342 9.7796 10.343 -0.19342 8.1968 8.6926 -0.042112 -0 0 -0 25.865 -9.8805 28.309 -103.96 -43.151 -62.366 -0 0 -0 -0 0 -0 -74.665 -38.663 -48.829 -62.063 -46.375 -76.884 -0 0 -0 -5.1493 -14.08 -2.3248 -5.1493 -14.08 -2.3248 -14.581 -3.2957 -2.2739 -9.0441 -30.756 -29.811 168.46 84.137 -131.11 -0 0 -0 -0 0 -0 -0 0 -0 -14.581 -3.2957 -2.2739 16.233 -4.5169 -14.218 13.594 25.94 -7.3345 -0 0 -0 -0 0 -0 -0 0 -0 
0 96.378 0 -0 0 -0 -15.877 -3.9604 -2.2543 10.288 10.206 -0.81802 10.288 10.206 -0.81802 8.6156 8.5851 -0.56144 -0 0 -0 26.873 -8.5072 28.053 -107.53 -45.643 -64.918 -0 0 -0 -0 0 -0 -74.338 -39.956 -44.99 -57.802 -44.421 -73.039 -0 0 -0 -5.0617 -13.578 -1.5184 -5.0617 -13.578 -1.5184 -15.877 -3.9604 -2.2543 -6.5733 -26.866 -25.83 129.06 83.706 -92.698 -0 0 -0 -0 0 -0 -0 0 -0 -15.877 -3.9604 -2.2543 18.279 -3.5532 -14.573 12.255 24.975 -6.3898 -0 0 -0 -0 0 -0 -0 0 -0 
0 96.378 0 -0 0 -0 -16.497 -4.5197 -2.4394 10.642 9.9026 -1.6943 10.642 9.9026 -1.6943 8.904 8.3419 -1.2961 -0 0 -0 25.897 -6.9954 28.789 -111.12 -48.243 -67.073 -0 0 -0 -0 0 -0 -71.01 -40.704 -39.363 -53.972 -44.882 -68.041 -0 0 -0 -5.0498 -12.648 -0.25349 -5.0498 -12.648 -0.25349 -16.497 -4.5197 -2.4394 -3.9344 -21.972 -20.293 87.559 80.542 -52.548 -0 0 -0 -0 0 -0 -0 0 -0 -16.497 -4.5197 -2.4394 19.532 -2.6716 -14.333 10.921 23.893 -5.6682 -0 0 -0 -0 0 -0 -0 0 -0 
0 96.378 0 -0 0 -0 -16.401 -4.9988 -2.7532 10.601 9.1038 -2.3047 10.601 9.1038 -2.3047 8.8673 7.6782 -1.8195 -0 0 -0 23.845 -5.7628 29.091 -114.3 -50.455 -68.614 -0 0 -0 -0 0 -0 -64.208 -39.108 -32.272 -49.808 -48.196 -61.852 -0 0 -0 -4.955 -10.838 0.73674 -4.955 -10.838 0.73674 -16.401 -4.9988 -2.7532 -1.0618 -15.889 -13.758 61.797 73.788 -27.93 -0 0 -0 -0 0 -0 -0 0 -0 -16.401 -4.9988 -2.7532 19.699 -2.1995 -12.778 10.103 22.548 -6.617 -0 0 -0 -0 0 -0 -0 0 -0 
0 96.378 0 -0 0 -0 -15.383 -5.3963 -3.0357 9.9732 7.933 -2.5327 9.9732 7.933 -2.5327 8.3445 6.6952 -2.0322 -0 0 -0 21.485 -5.1982 28.907 -116.99 -52.119 -69.859 -0 0 -0 -0 0 -0 -55.293 -34.497 -25.148 -44.689 -53.612 -54.524 -0 0 -0 -4.5995 -8.4729 1.234 -4.5995 -8.4729 1.234 -15.383 -5.3963 -3.0357 1.4758 -9.3076 -6.9195 47.442 64.484 -14.734 -0 0 -0 -0 0 -0 -0 0 -0 -15.383 -5.3963 -3.0357 18.743 -2.2754 -9.501 9.86 21.087 -9.4792 -0 0 -0 -0 0 -0 -0 0 -0 
0 96.378 0 -0 0 -0 -13.502 -5.6115 -3.1942 8.847 6.9076 -2.5703 8.847 6.9076 -2.5703 7.4044 5.8304 -2.0857 -0 0 -0 19.156 -5.9359 29.067 -119.57 -53.472 -71.46 -0 0 -0 -0 0 -0 -46.415 -28.049 -19.408 -37.946 -59.55 -45.933 -0 0 -0 -3.9718 -6.4736 1.4853 -3.9718 -6.4737 1.4853 -13.502 -5.6115 -3.1942 3.3824 -3.9143 -0.25429 38.952 54.668 -8.5256 -0 0 -0 -0 0 -0 -0 0 -0 -13.502 -5.6115 -3.1942 16.949 -2.8563 -5.173 9.9344 19.847 -13.098 -0 0 -0 -0 0 -0 -0 0 -0 
0 96.378 0 -0 0 -0 -11.093 -5.5769 -3.3102 7.5325 6.1895 -2.6851 7.5325 6.1895 -2.6851 6.3035 5.2238 -2.1994 -0 0 -0 16.734 -7.7691 29.745 -122.41 -54.923 -73.768 -0 0 -0 -0 0 -0 -38.685 -21.226 -14.334 -29.235 -64.306 -36.157 -0 0 -0 -3.3184 -5.1468 1.861 -3.3184 -5.1468 1.861 -11.093 -5.5769 -3.3102 4.528 -0.36816 6.5364 33.628 45.692 -7.0184 -0 0 -0 -0 0 -0 -0 0 -0 -11.093 -5.5769 -3.3102 14.443 -3.9573 -1.1241 10.269 19.201 -16.239 -0 0 -0 -0 0 -0 -0 0 -0 
0 96.378 0 -0 0 -0 -8.4983 -5.3565 -3.5001 6.1011 5.4489 -2.751 6.1011 5.4489 -2.751 5.1047 4.5973 -2.2707 -0 0 -0 14.471 -9.7253 29.917 -125.51 -56.629 -76.594 -0 0 -0 -0 0 -0 -31.968 -13.938 -9.4342 -19.295 -66.866 -25.827 -0 0 -0 -2.6353 -3.9391 2.2134 -2.6353 -3.9391 2.2134 -8.4983 -5.3565 -3.5001 4.6233 2.7162 13.846 30.129 37.391 -7.835 -0 0 -0 -0 0 -0 -0 0 -0 -8.4983 -5.3565 -3.5001 11.135 -5.7775 2.4492 11.397 19.389 -19.492 -0 0 -0 -0 0 -0 -0 0 -0 
0 96.378 0 -0 0 -0 -5.9915 -5.0937 -3.7186 4.7301 4.7736 -2.7883 4.7301 4.7736 -2.7883 3.9561 4.0256 -2.3148 -0 0 -0 12.198 -11.818 29.524 -128.93 -58.439 -79.805 -0 0 -0 -0 0 -0 -26.058 -6.8955 -5.29 -11.289 -67.282 -17.34 -0 0 -0 -2.0121 -2.8481 2.5187 -2.0121 -2.8481 2.5187 -5.9915 -5.0937 -3.7186 3.4547 5.8112 18.662 26.675 30.843 -6.4915 -0 0 -0 -0 0 -0 -0 0 -0 -5.9915 -5.0937 -3.7186 6.956 -8.502 5.3863 13.914 20.616 -23.28 -0 0 -0 -0 0 -0 -0 0 -0 
0 96.378 0 -0 0 -0 -3.8746 -4.8558 -3.8734 3.6483 4.486 -2.9561 3.6483 4.486 -2.9561 3.048 3.7811 -2.4631 -0 0 -0 9.8257 -14.819 29.171 -132.59 -60.073 -83.22 -0 0 -0 -0 0 -0 -20.836 -1.4208 -2.7408 -6.7283 -66.093 -11.409 -0 0 -0 -1.5357 -2.2925 2.9334 -1.5357 -2.2925 2.9334 -3.8746 -4.8558 -3.8734 1.8866 7.8633 19.316 22.487 26.374 -2.1702 -0 0 -0 -0 0 -0 -0 0 -0 -3.8746 -4.8558 -3.8734 3.0437 -11.687 7.7048 17.227 22.536 -27.166 -0 0 -0 -0 0 -0 -0 0 -0 
0 96.378 0 -0 0 -0 -2.2654 -4.5217 -3.8704 2.8475 4.5807 -3.2443 2.8475 4.5807 -3.2443 2.3736 3.8588 -2.7089 -0 0 -0 7.6522 -18.933 28.807 -136.03 -61.297 -86.453 -0 0 -0 -0 0 -0 -16.129 2.1393 -2.1997 -3.9466 -63.468 -6.2973 -0 0 -0 -1.0799 -2.3499 3.4181 -1.0799 -2.3499 3.4181 -2.2654 -4.5217 -3.8704 0.62493 9.7123 17.783 17.754 21.729 2.6835 -0 0 -0 -0 0 -0 -0 0 -0 -2.2654 -4.5217 -3.8704 1.1637 -14.838 10.371 20.158 24.673 -31.384 -0 0 -0 -0 0 -0 -0 0 -0 
